<svg width="34" height="34" viewBox="0 0 34 34" fill="none" xmlns="http://www.w3.org/2000/svg">
<circle cx="17" cy="17" r="16.5" fill="#F8F8F8" stroke="#9AA5B1"/>
<mask id="mask0" mask-type="alpha" maskUnits="userSpaceOnUse" x="1" y="1" width="32" height="32">
<circle cx="17" cy="17" r="16" fill="#D4D9DE"/>
</mask>
<g mask="url(#mask0)">
<path fill-rule="evenodd" clip-rule="evenodd" d="M24.5068 30.4636C24.4351 28.4793 23.6134 26.6007 22.2144 25.2228C20.8154 23.8449 18.9481 23.075 17.0051 23.075C15.0621 23.075 13.1949 23.8449 11.7959 25.2228C10.3968 26.6007 9.57511 28.4793 9.50341 30.4636V32H8V30.4636C8.00119 28.619 8.54502 26.8175 9.56088 25.2929C10.5767 23.7682 12.0177 22.591 13.6966 21.9139C12.3946 21.1672 11.3717 20.0005 10.7877 18.5963C10.2038 17.1921 10.0919 15.6297 10.4695 14.1535C10.8471 12.6774 11.6929 11.3708 12.8745 10.4383C14.0562 9.50583 15.507 9 17 9C18.493 9 19.9438 9.50583 21.1255 10.4383C22.3071 11.3708 23.1529 12.6774 23.5305 14.1535C23.9081 15.6297 23.7962 17.1921 23.2123 18.5963C22.6284 20.0005 21.6054 21.1672 20.3034 21.9139C21.9823 22.591 23.4233 23.7682 24.4391 25.2929C25.455 26.8175 25.9988 28.619 26 30.4636V32H24.4966L24.5068 30.4636ZM22.2568 15.8937C22.2568 14.8307 21.9482 13.7916 21.3702 12.9079C20.7921 12.0242 19.9705 11.3356 19.0093 10.9293C18.0482 10.523 16.9907 10.4173 15.9707 10.6254C14.9507 10.8335 14.014 11.3462 13.2793 12.0986C12.5445 12.851 12.0446 13.8092 11.8429 14.852C11.6413 15.8948 11.7468 16.9753 12.1463 17.9568C12.5457 18.9383 13.2211 19.7766 14.0869 20.3656C14.9527 20.9547 15.9701 21.268 17.0102 21.2659C18.4026 21.2632 19.7371 20.6959 20.7207 19.6887C21.7044 18.6815 22.2568 17.3167 22.2568 15.8937Z" fill="#9AA5B1"/>
</g>
</svg>
